<svg id="visual" viewBox="0 0 960 540" width="960" height="540" xmlns="http://www.w3.org/2000/svg" xmlns:xlink="http://www.w3.org/1999/xlink" version="1.1"><rect x="0" y="0" width="960" height="540" fill="#293462"></rect><path d="M0 309L22.8 328.8C45.7 348.7 91.3 388.3 137 385.8C182.7 383.3 228.3 338.7 274 326C319.7 313.3 365.3 332.7 411.2 328.5C457 324.3 503 296.7 548.8 306.2C594.7 315.7 640.3 362.3 686 358.3C731.7 354.3 777.3 299.7 823 268.2C868.7 236.7 914.3 228.3 937.2 224.2L960 220L960 541L937.2 541C914.3 541 868.7 541 823 541C777.3 541 731.7 541 686 541C640.3 541 594.7 541 548.8 541C503 541 457 541 411.2 541C365.3 541 319.7 541 274 541C228.3 541 182.7 541 137 541C91.3 541 45.7 541 22.8 541L0 541Z" fill="#F24C4C" stroke-linecap="round" stroke-linejoin="miter"></path></svg>